<svg width="32" height="32" viewBox="0 0 32 32" fill="none" xmlns="http://www.w3.org/2000/svg">
<rect width="32" height="32" rx="8" fill="#1152D4"/>
<path d="M15.8801 24C15.9468 24 16.0135 23.9833 16.0801 23.95C16.1468 23.9167 16.1968 23.8833 16.2301 23.85L24.4301 15.65C24.6301 15.45 24.7759 15.225 24.8676 14.975C24.9593 14.725 25.0051 14.475 25.0051 14.225C25.0051 13.9583 24.9593 13.7042 24.8676 13.4625C24.7759 13.2208 24.6301 13.0083 24.4301 12.825L20.1801 8.575C19.9968 8.375 19.7843 8.22917 19.5426 8.1375C19.301 8.04583 19.0468 8 18.7801 8C18.5301 8 18.2801 8.04583 18.0301 8.1375C17.7801 8.22917 17.5551 8.375 17.3551 8.575L17.0801 8.85L18.9301 10.725C19.1801 10.9583 19.3635 11.225 19.4801 11.525C19.5968 11.825 19.6551 12.1417 19.6551 12.475C19.6551 13.175 19.4176 13.7625 18.9426 14.2375C18.4676 14.7125 17.8801 14.95 17.1801 14.95C16.8468 14.95 16.526 14.8917 16.2176 14.775C15.9093 14.6583 15.6385 14.4833 15.4051 14.25L13.5301 12.4L9.15512 16.775C9.10512 16.825 9.06762 16.8792 9.04262 16.9375C9.01762 16.9958 9.00512 17.0583 9.00512 17.125C9.00512 17.2583 9.05512 17.3792 9.15512 17.4875C9.25512 17.5958 9.37178 17.65 9.50512 17.65C9.57178 17.65 9.63845 17.6333 9.70512 17.6C9.77178 17.5667 9.82178 17.5333 9.85512 17.5L13.2551 14.1L14.6551 15.5L11.2801 18.9C11.2301 18.95 11.1926 19.0042 11.1676 19.0625C11.1426 19.1208 11.1301 19.1833 11.1301 19.25C11.1301 19.3833 11.1801 19.5 11.2801 19.6C11.3801 19.7 11.4968 19.75 11.6301 19.75C11.6968 19.75 11.7635 19.7333 11.8301 19.7C11.8968 19.6667 11.9468 19.6333 11.9801 19.6L15.3801 16.225L16.7801 17.625L13.4051 21.025C13.3551 21.0583 13.3176 21.1083 13.2926 21.175C13.2676 21.2417 13.2551 21.3083 13.2551 21.375C13.2551 21.5083 13.3051 21.625 13.4051 21.725C13.5051 21.825 13.6218 21.875 13.7551 21.875C13.8218 21.875 13.8843 21.8625 13.9426 21.8375C14.001 21.8125 14.0551 21.775 14.1051 21.725L17.5051 18.35L18.9051 19.75L15.5051 23.15C15.4551 23.2 15.4176 23.2542 15.3926 23.3125C15.3676 23.3708 15.3551 23.4333 15.3551 23.5C15.3551 23.6333 15.4093 23.75 15.5176 23.85C15.626 23.95 15.7468 24 15.8801 24ZM15.8551 26C15.2385 26 14.6926 25.7958 14.2176 25.3875C13.7426 24.9792 13.4635 24.4667 13.3801 23.85C12.8135 23.7667 12.3385 23.5333 11.9551 23.15C11.5718 22.7667 11.3385 22.2917 11.2551 21.725C10.6885 21.6417 10.2176 21.4042 9.84262 21.0125C9.46762 20.6208 9.23845 20.15 9.15512 19.6C8.52178 19.5167 8.00512 19.2417 7.60512 18.775C7.20512 18.3083 7.00512 17.7583 7.00512 17.125C7.00512 16.7917 7.06762 16.4708 7.19262 16.1625C7.31762 15.8542 7.49678 15.5833 7.73012 15.35L13.5301 9.575L16.8051 12.85C16.8385 12.9 16.8885 12.9375 16.9551 12.9625C17.0218 12.9875 17.0885 13 17.1551 13C17.3051 13 17.4301 12.9542 17.5301 12.8625C17.6301 12.7708 17.6801 12.65 17.6801 12.5C17.6801 12.4333 17.6676 12.3667 17.6426 12.3C17.6176 12.2333 17.5801 12.1833 17.5301 12.15L13.9551 8.575C13.7718 8.375 13.5593 8.22917 13.3176 8.1375C13.076 8.04583 12.8218 8 12.5551 8C12.3051 8 12.0551 8.04583 11.8051 8.1375C11.5551 8.22917 11.3301 8.375 11.1301 8.575L7.60512 12.125C7.45512 12.275 7.33012 12.45 7.23012 12.65C7.13012 12.85 7.06345 13.05 7.03012 13.25C6.99678 13.45 6.99678 13.6542 7.03012 13.8625C7.06345 14.0708 7.13012 14.2667 7.23012 14.45L5.78012 15.9C5.49678 15.5167 5.28845 15.0958 5.15512 14.6375C5.02178 14.1792 4.97178 13.7167 5.00512 13.25C5.03845 12.7833 5.15512 12.3292 5.35512 11.8875C5.55512 11.4458 5.83012 11.05 6.18012 10.7L9.70512 7.175C10.1051 6.79167 10.551 6.5 11.0426 6.3C11.5343 6.1 12.0385 6 12.5551 6C13.0718 6 13.576 6.1 14.0676 6.3C14.5593 6.5 14.9968 6.79167 15.3801 7.175L15.6551 7.45L15.9301 7.175C16.3301 6.79167 16.776 6.5 17.2676 6.3C17.7593 6.1 18.2635 6 18.7801 6C19.2968 6 19.801 6.1 20.2926 6.3C20.7843 6.5 21.2218 6.79167 21.6051 7.175L25.8301 11.4C26.2134 11.7833 26.5051 12.225 26.7051 12.725C26.9051 13.225 27.0051 13.7333 27.0051 14.25C27.0051 14.7667 26.9051 15.2708 26.7051 15.7625C26.5051 16.2542 26.2134 16.6917 25.8301 17.075L17.6301 25.25C17.3968 25.4833 17.126 25.6667 16.8176 25.8C16.5093 25.9333 16.1884 26 15.8551 26Z" fill="white"/>
</svg>
