<svg width="56" height="56" viewBox="0 0 56 56" fill="none" xmlns="http://www.w3.org/2000/svg">
<rect width="56" height="56" rx="12" fill="#1152D4" fill-opacity="0.1"/>
<path d="M14.25 38V34.5C14.25 33.7917 14.4323 33.1406 14.7969 32.5469C15.1615 31.9531 15.6458 31.5 16.25 31.1875C17.5417 30.5417 18.8542 30.0573 20.1875 29.7344C21.5208 29.4115 22.875 29.25 24.25 29.25C25.625 29.25 26.9792 29.4115 28.3125 29.7344C29.6458 30.0573 30.9583 30.5417 32.25 31.1875C32.8542 31.5 33.3385 31.9531 33.7031 32.5469C34.0677 33.1406 34.25 33.7917 34.25 34.5V38H14.25ZM36.75 38V34.25C36.75 33.3333 36.4948 32.4531 35.9844 31.6094C35.474 30.7656 34.75 30.0417 33.8125 29.4375C34.875 29.5625 35.875 29.776 36.8125 30.0781C37.75 30.3802 38.625 30.75 39.4375 31.1875C40.1875 31.6042 40.7604 32.0677 41.1562 32.5781C41.5521 33.0885 41.75 33.6458 41.75 34.25V38H36.75ZM24.25 28C22.875 28 21.6979 27.5104 20.7188 26.5312C19.7396 25.5521 19.25 24.375 19.25 23C19.25 21.625 19.7396 20.4479 20.7188 19.4688C21.6979 18.4896 22.875 18 24.25 18C25.625 18 26.8021 18.4896 27.7812 19.4688C28.7604 20.4479 29.25 21.625 29.25 23C29.25 24.375 28.7604 25.5521 27.7812 26.5312C26.8021 27.5104 25.625 28 24.25 28ZM36.75 23C36.75 24.375 36.2604 25.5521 35.2812 26.5312C34.3021 27.5104 33.125 28 31.75 28C31.5208 28 31.2292 27.974 30.875 27.9219C30.5208 27.8698 30.2292 27.8125 30 27.75C30.5625 27.0833 30.9948 26.3438 31.2969 25.5312C31.599 24.7188 31.75 23.875 31.75 23C31.75 22.125 31.599 21.2812 31.2969 20.4688C30.9948 19.6562 30.5625 18.9167 30 18.25C30.2917 18.1458 30.5833 18.0781 30.875 18.0469C31.1667 18.0156 31.4583 18 31.75 18C33.125 18 34.3021 18.4896 35.2812 19.4688C36.2604 20.4479 36.75 21.625 36.75 23ZM16.75 35.5H31.75V34.5C31.75 34.2708 31.6927 34.0625 31.5781 33.875C31.4635 33.6875 31.3125 33.5417 31.125 33.4375C30 32.875 28.8646 32.4531 27.7188 32.1719C26.5729 31.8906 25.4167 31.75 24.25 31.75C23.0833 31.75 21.9271 31.8906 20.7812 32.1719C19.6354 32.4531 18.5 32.875 17.375 33.4375C17.1875 33.5417 17.0365 33.6875 16.9219 33.875C16.8073 34.0625 16.75 34.2708 16.75 34.5V35.5ZM24.25 25.5C24.9375 25.5 25.526 25.2552 26.0156 24.7656C26.5052 24.276 26.75 23.6875 26.75 23C26.75 22.3125 26.5052 21.724 26.0156 21.2344C25.526 20.7448 24.9375 20.5 24.25 20.5C23.5625 20.5 22.974 20.7448 22.4844 21.2344C21.9948 21.724 21.75 22.3125 21.75 23C21.75 23.6875 21.9948 24.276 22.4844 24.7656C22.974 25.2552 23.5625 25.5 24.25 25.5Z" fill="#1152D4"/>
</svg>
